<svg xmlns="http://www.w3.org/2000/svg" viewBox="0 0 17.76 2305"><defs><style>.cls-1{fill:#fff;}</style></defs><g id="Layer_2" data-name="Layer 2"><g id="Layer_1-2" data-name="Layer 1"><path class="cls-1" d="M8.88,2305A8.87,8.87,0,0,1,0,2296.12v-21.31a8.88,8.88,0,1,1,17.76,0v21.31A8.88,8.88,0,0,1,8.88,2305Z"/><path class="cls-1" d="M8.88,2241.34A8.88,8.88,0,0,1,0,2232.46v-42.35a8.88,8.88,0,1,1,17.76,0v42.35A8.89,8.89,0,0,1,8.88,2241.34Zm0-84.7A8.88,8.88,0,0,1,0,2147.76v-42.35a8.88,8.88,0,0,1,17.76,0v42.35A8.89,8.89,0,0,1,8.88,2156.64Zm0-84.71A8.87,8.87,0,0,1,0,2063.05V2020.7a8.88,8.88,0,1,1,17.76,0v42.35A8.88,8.88,0,0,1,8.88,2071.93Zm0-84.7A8.87,8.87,0,0,1,0,1978.35V1936a8.88,8.88,0,0,1,17.76,0v42.35A8.88,8.88,0,0,1,8.88,1987.23Zm0-84.7A8.88,8.88,0,0,1,0,1893.65V1851.3a8.88,8.88,0,0,1,17.76,0v42.35A8.89,8.89,0,0,1,8.88,1902.53Zm0-84.71A8.87,8.87,0,0,1,0,1809v-42.36a8.88,8.88,0,0,1,17.76,0V1809A8.88,8.88,0,0,1,8.88,1817.82Zm0-84.7A8.87,8.87,0,0,1,0,1724.24v-42.35a8.88,8.88,0,1,1,17.76,0v42.35A8.88,8.88,0,0,1,8.88,1733.12Zm0-84.7A8.88,8.88,0,0,1,0,1639.54v-42.35a8.88,8.88,0,0,1,17.76,0v42.35A8.89,8.89,0,0,1,8.88,1648.42Zm0-84.7A8.88,8.88,0,0,1,0,1554.84v-42.35a8.88,8.88,0,1,1,17.76,0v42.35A8.89,8.89,0,0,1,8.88,1563.72Zm0-84.71A8.87,8.87,0,0,1,0,1470.13v-42.35a8.88,8.88,0,0,1,17.76,0v42.35A8.88,8.88,0,0,1,8.88,1479Zm0-84.7A8.87,8.87,0,0,1,0,1385.43v-42.35a8.88,8.88,0,0,1,17.76,0v42.35A8.88,8.88,0,0,1,8.88,1394.31Zm0-84.7A8.88,8.88,0,0,1,0,1300.73v-42.35a8.88,8.88,0,0,1,17.76,0v42.35A8.89,8.89,0,0,1,8.88,1309.61Zm0-84.7A8.88,8.88,0,0,1,0,1216v-42.36a8.88,8.88,0,0,1,17.76,0V1216A8.89,8.89,0,0,1,8.88,1224.91Zm0-84.71A8.87,8.87,0,0,1,0,1131.32V1089a8.88,8.88,0,1,1,17.76,0v42.35A8.88,8.88,0,0,1,8.88,1140.2Zm0-84.7A8.87,8.87,0,0,1,0,1046.62v-42.35a8.88,8.88,0,0,1,17.76,0v42.35A8.88,8.88,0,0,1,8.88,1055.5Zm0-84.7A8.88,8.88,0,0,1,0,961.92V919.57a8.88,8.88,0,0,1,17.76,0v42.35A8.89,8.89,0,0,1,8.88,970.8Zm0-84.71A8.87,8.87,0,0,1,0,877.21V834.86a8.88,8.88,0,0,1,17.76,0v42.35A8.88,8.88,0,0,1,8.88,886.09Zm0-84.7A8.87,8.87,0,0,1,0,792.51V750.16a8.88,8.88,0,0,1,17.76,0v42.35A8.88,8.88,0,0,1,8.88,801.39Zm0-84.7A8.88,8.88,0,0,1,0,707.81V665.46a8.88,8.88,0,0,1,17.76,0v42.35A8.89,8.89,0,0,1,8.88,716.69Zm0-84.7A8.88,8.88,0,0,1,0,623.11V580.76a8.88,8.88,0,0,1,17.76,0v42.35A8.89,8.89,0,0,1,8.88,632Zm0-84.71A8.87,8.87,0,0,1,0,538.4V496.05a8.88,8.88,0,0,1,17.76,0V538.4A8.88,8.88,0,0,1,8.88,547.28Zm0-84.7A8.87,8.87,0,0,1,0,453.7V411.35a8.88,8.88,0,0,1,17.76,0V453.7A8.88,8.88,0,0,1,8.88,462.58Zm0-84.7A8.88,8.88,0,0,1,0,369V326.65a8.88,8.88,0,0,1,17.76,0V369A8.89,8.89,0,0,1,8.88,377.88Zm0-84.71A8.87,8.87,0,0,1,0,284.3V242a8.88,8.88,0,0,1,17.76,0V284.3A8.88,8.88,0,0,1,8.88,293.17Zm0-84.7A8.87,8.87,0,0,1,0,199.59V157.24a8.88,8.88,0,0,1,17.76,0v42.35A8.88,8.88,0,0,1,8.88,208.47Zm0-84.7A8.87,8.87,0,0,1,0,114.89V72.54a8.88,8.88,0,1,1,17.76,0v42.35A8.88,8.88,0,0,1,8.88,123.77Z"/><path class="cls-1" d="M8.88,39.07A8.88,8.88,0,0,1,0,30.19V8.88a8.88,8.88,0,0,1,17.76,0V30.19A8.89,8.89,0,0,1,8.88,39.07Z"/></g></g></svg>